<?xml version='1.0' encoding='utf-8'?>
<svg xmlns="http://www.w3.org/2000/svg" data-name="Layer 1" viewBox="0 0 150 150"> <defs> <style>.cls-1 { fill: #46c1bf; } .cls-1, .cls-2, .cls-3 { stroke: #111; stroke-linecap: round; stroke-linejoin: round; stroke-width: 3px; } .cls-2 { fill: #fac545; } .cls-3 { fill: none; }</style> </defs> <path class="cls-1" d="M130.18,117.39h0a22.67,22.67,0,0,0,12.21-29.64l-13-31.34A23.28,23.28,0,0,0,98.9,43.86L85.19,49.57a10.11,10.11,0,0,1-3.89.78H68.7a10.11,10.11,0,0,1-3.89-.78L51.1,43.86A23.28,23.28,0,0,0,20.66,56.4l-13,31.34a22.67,22.67,0,0,0,12.21,29.64h0a22.67,22.67,0,0,0,29.64-12.21l1.81-4.36A11.18,11.18,0,0,1,61.6,93.93H88.4a11.18,11.18,0,0,1,10.32,6.88l1.81,4.36A22.67,22.67,0,0,0,130.18,117.39Z"/> <path class="cls-2" d="m52.31 69.62h-7.69a2.2 2.2 0 0 1-2.2-2.2v-7.69a2.2 2.2 0 0 0-2.2-2.2h-5.37a2.2 2.2 0 0 0-2.2 2.2v7.69a2.2 2.2 0 0 1-2.2 2.2h-7.68a2.2 2.2 0 0 0-2.2 2.2v5.37a2.2 2.2 0 0 0 2.2 2.2h7.69a2.2 2.2 0 0 1 2.2 2.2v7.69a2.2 2.2 0 0 0 2.2 2.2h5.37a2.2 2.2 0 0 0 2.2-2.2v-7.7a2.2 2.2 0 0 1 2.2-2.2h7.69a2.2 2.2 0 0 0 2.2-2.2v-5.37a2.2 2.2 0 0 0-2.21-2.19z"/> <circle class="cls-2" cx="109.08" cy="62.62" r="5.4"/> <circle class="cls-2" cx="109.08" cy="82.58" r="5.4"/> <circle class="cls-2" cx="99.1" cy="72.6" r="5.4"/> <circle class="cls-2" cx="119.06" cy="72.6" r="5.4"/> <path class="cls-3" d="M83.44,18.48S71.68,20.19,75,30.2s.87,20.14.87,20.14"/> </svg>